# xmcd
#
# Track frame offsets: 
#        150
#        21897
#        36122
#        53547
#        66492
#        81780
#        98079
#        115435
#        132772
#        148397
#        163377
#        180350
#        194272
#        208075
#        223265
#        235415
#        252347
#        271857
#        286867
#        302490
#
# Disc length: 4211 seconds
#
# Revision: 6
# Processed by: cddbd v1.5.2PL0 Copyright (c) Steve Scherf et al.
# Submitted via: ExactAudioCopy v1.0b3
#
DISCID=2d107114
DTITLE=Kenny Rogers - With Love
DYEAR=1996
DGENRE=Country
TTITLE0=Have I told you lately that I love you (1996)
TTITLE1=You are so beautiful (1982)
TTITLE2=I swear (1996)
TTITLE3=As time goes by (1996)
TTITLE4=Unforgettable (1996)
TTITLE5=The wind beneath my wings (1996)
TTITLE6=Endless love (1996)
TTITLE7=Lady (1980)
TTITLE8=Unchained melody (1977)
TTITLE9=Crazy (1984)
TTITLE10=When a man loves a woman (1996)
TTITLE11=You send me (1996)
TTITLE12=Love me tender (1996)
TTITLE13=I can't help falling in love (1996)
TTITLE14=It had to be you (1996)
TTITLE15=Stardust (1996)
TTITLE16=She believes in me (1978)
TTITLE17=Misty (1996)
TTITLE18=When I fall in love (1994)
TTITLE19=I will always love you (1983)
EXTD=
EXTT0=
EXTT1=
EXTT2=
EXTT3=
EXTT4=
EXTT5=
EXTT6=
EXTT7=
EXTT8=
EXTT9=
EXTT10=
EXTT11=
EXTT12=
EXTT13=
EXTT14=
EXTT15=
EXTT16=
EXTT17=
EXTT18=
EXTT19=
PLAYORDER=
